<svg xmlns="http://www.w3.org/2000/svg" width="112.199" height="59.525" viewBox="0 0 112.199 59.525"><defs><style>.a{fill:#185a73;}</style></defs><g transform="translate(0)"><path class="a" d="M75.682,95.855a4.549,4.549,0,0,1-4.2,3.47H51.108a2.717,2.717,0,0,1-2.731-3.47A4.552,4.552,0,0,1,52.6,92.38H72.964a2.671,2.671,0,0,1,2.842,2.489,2.639,2.639,0,0,1-.12.986Z" transform="translate(-48.27 -92.374)"/><path class="a" d="M72.221,106.457a4.544,4.544,0,0,1-4.2,3.465h-14.7a2.714,2.714,0,0,1-2.723-3.47,4.539,4.539,0,0,1,4.2-3.465h14.7a2.672,2.672,0,0,1,2.728,3.47Z" transform="translate(-47.826 -90.246)"/><path class="a" d="M68.676,117.053a4.538,4.538,0,0,1-4.2,3.479H55.919a2.718,2.718,0,0,1-2.723-3.475,4.544,4.544,0,0,1,4.2-3.465h8.578a2.707,2.707,0,0,1,2.7,3.46Z" transform="translate(-47.304 -88.118)"/><g transform="translate(24.116 0.001)"><path class="a" d="M80.436,128.678a6.318,6.318,0,0,0-2-.265v.014a10.461,10.461,0,0,0-9.661,8.121,6.317,6.317,0,0,0,6.23,8.121,10.456,10.456,0,0,0,9.661-8.121A6.318,6.318,0,0,0,80.436,128.678Z" transform="translate(-68.325 -85.146)"/><path class="a" d="M146.475,119.9l-6.627-18.133a1.974,1.974,0,0,0-1.755-1.167H124.167a1.755,1.755,0,0,0-1.611,1.354l0,.013-5.6,26.618a1.055,1.055,0,0,0,1.036,1.354h8.5c9.877,0,8.872,9.121,9.064,10.53a1.528,1.528,0,0,0,1.574,1.247h4.11a1.753,1.753,0,0,0,1.606-1.359l3.777-17.937A5.452,5.452,0,0,0,146.475,119.9Zm-6.9-2.9a1.2,1.2,0,0,1-.656.113H124.76a.937.937,0,0,1-.911-1.186l2.186-10.39a1.527,1.527,0,0,1,1.4-1.186h7.938c.64,0,.864.336,1.177,1.191l3.581,9.848A1.2,1.2,0,0,1,139.575,117Z" transform="translate(-58.619 -90.725)"/><path class="a" d="M117.7,127.689H87.318a1.751,1.751,0,0,0-1.606,1.349l-.686,3.218a1.054,1.054,0,0,0,1.036,1.349h30.387a1.746,1.746,0,0,0,1.606-1.349l.682-3.218a1.087,1.087,0,0,0,.043-.329A1.051,1.051,0,0,0,117.7,127.689Z" transform="translate(-65.021 -85.291)"/><path class="a" d="M86.941,111.7h4.682l-.46-8.685Z" transform="translate(-64.629 -90.24)"/><path class="a" d="M131.058,93.405a1.055,1.055,0,0,0-1.079-1.03H77.718a1.742,1.742,0,0,0-1.606,1.354L68.4,130.275a1.051,1.051,0,0,0,1.037,1.354H121.7a1.749,1.749,0,0,0,1.606-1.354l7.705-36.546A1.051,1.051,0,0,0,131.058,93.405ZM78.221,119.783H75.383l3.758-17.242h9.332l-.537,2.508H81.411l-1.023,4.682h6.34l-.562,2.533H79.851Zm17.356,0-.179-3.412H89.515l-1.636,3.412H84.813l8.846-17.241h3.4l1.329,17.241Zm11.815-10.114c1.713,1.035,3.681,2.275,3.681,4.73a5.589,5.589,0,0,1-5.483,5.691q-.16,0-.321,0a7.138,7.138,0,0,1-5.727-2.533l1.76-2.088a5.012,5.012,0,0,0,4.09,2.067,2.544,2.544,0,0,0,2.682-2.4c0-.082,0-.162,0-.244,0-1.163-1.125-1.887-2.429-2.688-1.688-1.034-3.631-2.2-3.631-4.6a5.472,5.472,0,0,1,5.588-5.353l.089,0a6.606,6.606,0,0,1,5.062,2.172l-1.687,2.067a4.638,4.638,0,0,0-3.6-1.706,2.389,2.389,0,0,0-2.454,2.323v0C105.013,108.145,106.113,108.869,107.392,109.67Zm17.484-4.621h-3.886l-3.224,14.734h-2.813l3.2-14.734h-3.886l.538-2.508h10.636Z" transform="translate(-68.357 -92.375)"/><path class="a" d="M127.143,128.673a6.312,6.312,0,0,0-1.963-.261v.014a10.461,10.461,0,0,0-9.662,8.121,6.316,6.316,0,0,0,6.22,8.1,10.456,10.456,0,0,0,9.662-8.121A6.318,6.318,0,0,0,127.143,128.673Z" transform="translate(-58.949 -85.146)"/></g></g></svg>