<svg xmlns="http://www.w3.org/2000/svg" width="90.782" height="61.545" viewBox="0 0 90.782 61.545"><defs><style>.a{fill:#185a73;}</style></defs><g transform="translate(0 0)"><g transform="translate(30.657 12.203)"><path class="a" d="M330.422,107.513a2.712,2.712,0,0,0,.6,1.8,4.132,4.132,0,0,0,2.035,1.155v-5.807a3.106,3.106,0,0,0-1.931.98A2.727,2.727,0,0,0,330.422,107.513Z" transform="translate(-318.882 -97.734)"/><path class="a" d="M333.646,111.417v6.391a3.109,3.109,0,0,0,2.023-1.061,3.287,3.287,0,0,0,.8-2.251,2.815,2.815,0,0,0-.565-1.836A4.872,4.872,0,0,0,333.646,111.417Z" transform="translate(-318.235 -96.378)"/><path class="a" d="M335.545,98.891a14.735,14.735,0,1,0,14.735,14.735A14.735,14.735,0,0,0,335.545,98.891Zm4.268,21.615a5.089,5.089,0,0,1-3.592,1.563v2.123h-1.235v-2.1a7.76,7.76,0,0,1-2.56-.7,4.458,4.458,0,0,1-1.7-1.639,5.859,5.859,0,0,1-.834-2.764l2.111-.4a5.33,5.33,0,0,0,.863,2.484,3.062,3.062,0,0,0,2.123,1.247v-6.682a8.761,8.761,0,0,1-2.647-1,3.881,3.881,0,0,1-1.545-1.551,4.939,4.939,0,0,1,1.043-5.877,5.514,5.514,0,0,1,3.149-1.143v-1h1.235v1a5.188,5.188,0,0,1,2.9,1.072,4.769,4.769,0,0,1,1.656,3.137l-2.168.327a3.6,3.6,0,0,0-.776-1.895,2.869,2.869,0,0,0-1.616-.869v6.052a16.61,16.61,0,0,1,2.1.618,5.189,5.189,0,0,1,1.6,1.049,4.212,4.212,0,0,1,.951,1.47,5.012,5.012,0,0,1,.333,1.843A5.065,5.065,0,0,1,339.813,120.507Z" transform="translate(-320.81 -98.891)"/></g><path class="a" d="M368.706,105.941V90.228a1.5,1.5,0,0,0-1.5-1.5H314.129a1.5,1.5,0,0,0-1.5,1.5v15.713l-17.353,9.724v34.607h90.782V115.665Zm14.256,13.179L341.4,142.413a1.5,1.5,0,0,1-1.467,0L298.549,119.22a1.5,1.5,0,1,1,1.468-2.619l12.611,7.068h0l3,1.682V91.728H365.7v33.623l1.5-.842h0l14.288-8.008a1.5,1.5,0,0,1,2.043.575h0A1.5,1.5,0,0,1,382.962,119.12Z" transform="translate(-295.275 -88.727)"/></g></svg>