<svg xmlns="http://www.w3.org/2000/svg" width="116.441" height="63.711" viewBox="0 0 116.441 63.711"><defs><style>.a{fill:none;}.b{fill:#185a73;}</style></defs><g transform="translate(0 0)"><path class="a" d="M198.983,113.76a3.561,3.561,0,1,0,3.561,3.561A3.561,3.561,0,0,0,198.983,113.76Z" transform="translate(-164.908 -86.716)"/><path class="b" d="M286.447,99.937H269.835v-6.9a1.5,1.5,0,1,0-3,0v39.525a1.5,1.5,0,0,0,1.5,1.5h4.883l-21.879,17.458-21.879-17.458h4.883a1.5,1.5,0,0,0,1.5-1.5V93.042a1.5,1.5,0,1,0-3,0v6.9H213.151l-11.229,11.555a1.476,1.476,0,0,0-.226-1.383c-1.558-1.969-15.214-18.873-24.673-18.873-.217,0-.433.01-.645.028a7.03,7.03,0,0,0-5.669,3.96,5.934,5.934,0,0,0-.309,4.956c2.318,6.726,15.148,14.246,24.2,18.842l-2.741,2.819,21.288,21.9H236.77L250.4,154.618a1.5,1.5,0,0,0,1.87,0L265.9,143.742h20.543ZM173.238,99.2a2.984,2.984,0,0,1,.107-2.542,4.015,4.015,0,0,1,3.288-2.4c6.687-.55,18.653,12.6,22.709,17.718a1.492,1.492,0,0,0,1.646.48l-4.177,4.3C187.458,112.023,175.151,104.749,173.238,99.2Zm30.843,26.2a3.558,3.558,0,0,1-3.556-3.511c1.443.665,2.49,1.124,2.962,1.328a1.5,1.5,0,0,0,1.973-.783,1.5,1.5,0,0,0-.782-1.973c-.833-.36-1.82-.8-2.91-1.31a3.555,3.555,0,1,1,2.314,6.248Z" transform="translate(-170.006 -91.235)"/><path class="b" d="M235.286,126.95a7.543,7.543,0,0,1-1.225-3.521l-2.992.562a8.315,8.315,0,0,0,1.183,3.919,6.327,6.327,0,0,0,2.413,2.323,11,11,0,0,0,3.629,1v2.976h1.753V131.2a7.143,7.143,0,0,0,7.059-7.374,7.108,7.108,0,0,0-.472-2.611,5.979,5.979,0,0,0-1.347-2.083,7.362,7.362,0,0,0-2.266-1.489,23.882,23.882,0,0,0-2.975-.876v-8.581a4.056,4.056,0,0,1,2.289,1.232,5.1,5.1,0,0,1,1.1,2.687l3.075-.463a6.759,6.759,0,0,0-2.348-4.447,7.345,7.345,0,0,0-4.116-1.521V104.25H238.3v1.422a7.814,7.814,0,0,0-4.464,1.621,7,7,0,0,0-1.48,8.332,5.494,5.494,0,0,0,2.191,2.2,12.46,12.46,0,0,0,3.753,1.422v9.474A4.337,4.337,0,0,1,235.286,126.95Zm4.762-7.291a6.925,6.925,0,0,1,3.2,1.761,4,4,0,0,1,.8,2.6,4.663,4.663,0,0,1-1.132,3.191,4.418,4.418,0,0,1-2.868,1.5Zm-4.638-4.91a4.133,4.133,0,0,1,.149-5.208,4.411,4.411,0,0,1,2.736-1.388v8.234A5.874,5.874,0,0,1,235.41,114.748Z" transform="translate(-157.757 -88.624)"/></g></svg>