<svg xmlns="http://www.w3.org/2000/svg" width="93.882" height="69.418" viewBox="0 0 93.882 69.418"><defs><style>.a{fill:#185a73;}</style></defs><g transform="translate(0)"><g transform="translate(0 0)"><path class="a" d="M492.47,113.5l9.746,36.374a1.5,1.5,0,0,0,1.838,1.061l35.959-9.636a1.5,1.5,0,0,0,1.061-1.838l-9.746-36.374Zm41.647,22.726a1.5,1.5,0,0,1-1.061,1.837l-24.594,6.591a1.5,1.5,0,0,1-1.838-1.061l-7.056-26.335a1.5,1.5,0,0,1,1.061-1.838l24.594-6.59a1.5,1.5,0,0,1,1.838,1.061Z" transform="translate(-486.95 -81.574)"/><path class="a" d="M531.474,103.788l-4.692-17.506a1.5,1.5,0,0,0-1.838-1.061l-35.959,9.635a1.5,1.5,0,0,0-1.061,1.838l4.691,17.507Zm-36.661-4.116a1.5,1.5,0,0,1,1.061-1.838l24.6-6.59a1.5,1.5,0,0,1,1.837,1.061l2.07,7.723a1.5,1.5,0,0,1-1.061,1.838l-24.594,6.59a1.5,1.5,0,0,1-1.838-1.06Z" transform="translate(-487.872 -85.169)"/><rect class="a" width="22.46" height="24.262" transform="matrix(0.966, -0.259, 0.259, 0.966, 15.905, 36.362)"/><rect class="a" width="22.461" height="4.995" transform="matrix(0.966, -0.259, 0.259, 0.966, 10.228, 15.176)"/></g><path class="a" d="M572.539,94.855,536.58,85.221a1.5,1.5,0,0,0-1.838,1.061l-6.477,24.173,2.013,7.516,37.064-21.4,2.97.795-.3,1.131-38.926,22.475,1.466,5.468,35.459-20.474-1.1,4.1L533.352,129.44l1.466,5.468,30.09-17.373-1.1,4.1-28.19,16.274,1.173,4.376a4.392,4.392,0,0,1,.134,1.183L561.809,129.1l-1.1,4.1-22.881,13.21-1.676-.449a4.467,4.467,0,0,1-2.544,1.836l-1.1.3,24.039,6.44a1.5,1.5,0,0,0,1.838-1.06L573.6,96.694A1.5,1.5,0,0,0,572.539,94.855Zm-37.15.606,8.818-5.091,4.1,1.1-14.017,8.092Zm-4.2,15.669,1.1-4.1,23.486-13.56,4.1,1.1Zm26.42,33.639-8.213,4.742-4.1-1.1,13.411-7.743Z" transform="translate(-479.771 -85.169)"/></g></svg>